<?xml version="1.0" encoding="iso-8859-1"?>
<!-- Generator: Adobe Illustrator 19.1.0, SVG Export Plug-In . SVG Version: 6.00 Build 0)  -->
<svg version="1.1" id="Capa_1" xmlns="http://www.w3.org/2000/svg" xmlns:xlink="http://www.w3.org/1999/xlink" x="0px" y="0px"
	 viewBox="0 0 31.058 31.058" style="enable-background:new 0 0 31.058 31.058;" xml:space="preserve">
<g>
	<path style="fill:#010002;" d="M15.529,25.422H8.208C3.682,25.422,0,21.738,0,17.213s3.682-8.209,8.208-8.209h19.82L26.176,7.15
		c-0.347-0.346-0.347-0.908,0-1.254c0.347-0.346,0.908-0.346,1.255,0l3.363,3.363c0.016,0.016,0.032,0.033,0.047,0.051
		c0.118,0.135,0.188,0.299,0.21,0.467c0.007,0.059,0.009,0.119,0.005,0.178c-0.014,0.203-0.099,0.402-0.253,0.561l0,0
		c-0.001,0-0.001,0-0.002,0.002c0,0-0.001,0.002-0.002,0.002l-3.367,3.367c-0.347,0.346-0.908,0.346-1.255,0
		c-0.173-0.174-0.26-0.4-0.26-0.627c0-0.229,0.086-0.455,0.26-0.629l1.853-1.852H8.208c-3.548,0-6.434,2.887-6.434,6.434
		s2.886,6.434,6.434,6.434h7.321c0.49,0,0.887,0.396,0.887,0.887C16.417,25.023,16.02,25.422,15.529,25.422z"/>
</g>
<g>
</g>
<g>
</g>
<g>
</g>
<g>
</g>
<g>
</g>
<g>
</g>
<g>
</g>
<g>
</g>
<g>
</g>
<g>
</g>
<g>
</g>
<g>
</g>
<g>
</g>
<g>
</g>
<g>
</g>
</svg>
